<svg width="322" height="322" viewBox="0 0 322 322" fill="none" xmlns="http://www.w3.org/2000/svg">
<path fill-rule="evenodd" clip-rule="evenodd" d="M263.827 36.1332C221.914 36.7933 49.229 37.1524 6.03589 36.6034C3.47116 36.5712 3.27635 32.2 5.93124 32.2C50.4558 32.2547 204.373 31.4063 263.744 32.683C266.601 32.741 265.825 36.101 263.827 36.1332Z" fill="#191919"/>
<path fill-rule="evenodd" clip-rule="evenodd" d="M212.396 161.668C209.504 162.917 206.432 163.695 203.295 163.975C203.596 167.662 203.556 171.369 203.176 175.049C203.134 175.247 203.024 175.425 202.864 175.55C202.704 175.675 202.506 175.74 202.303 175.732C202.1 175.725 201.907 175.646 201.756 175.51C201.606 175.374 201.509 175.189 201.482 174.988C201.181 172.471 201.884 169.746 201.377 164.099C197.611 164.201 195.847 163.033 192.538 162.584C184.311 161.461 176.403 158.655 169.308 154.341C169.097 154.18 168.958 153.941 168.922 153.678C168.885 153.415 168.954 153.148 169.113 152.936C176.393 144.045 181.991 133.902 185.633 123.004C186.063 121.772 187.488 120.117 187.494 122.238C187.512 127.673 186.878 133.105 186.878 138.549C186.878 148.428 187.14 158.996 196.765 161.478C202.667 162.996 208.16 161.071 211.813 160.095C212.681 159.855 213.325 161.219 212.396 161.668Z" fill="#191919"/>
<path fill-rule="evenodd" clip-rule="evenodd" d="M198.463 140.53C197.619 142.165 200.495 141.971 202.219 142.054C202.437 142.072 202.641 142.166 202.796 142.321C202.95 142.475 203.045 142.679 203.063 142.897C203.082 143.115 203.022 143.332 202.896 143.51C202.769 143.688 202.584 143.815 202.372 143.87C201.232 144.023 200.073 143.957 198.957 143.676C196.964 143.263 195.443 142.528 196.528 140.295C197.229 138.788 198.026 137.327 198.914 135.921C199.023 135.751 199.19 135.626 199.384 135.57C199.578 135.514 199.786 135.53 199.969 135.616C200.152 135.702 200.297 135.852 200.378 136.037C200.459 136.222 200.47 136.43 200.408 136.623C199.859 137.973 199.209 139.279 198.463 140.53Z" fill="#191919"/>
<path fill-rule="evenodd" clip-rule="evenodd" d="M209.387 134.237C209.406 135.271 209.484 136.837 207.96 136.877C206.734 136.911 206.389 135.826 206.396 134.375C206.402 131.762 209.324 131.035 209.387 134.237Z" fill="#191919"/>
<path fill-rule="evenodd" clip-rule="evenodd" d="M195.024 134.171C194.998 135.16 194.578 136.092 193.437 136.045C192.484 136.006 192.141 134.718 192.168 133.87C192.208 132.617 192.603 131.978 193.395 131.804C194.61 131.537 195.058 132.931 195.024 134.171Z" fill="#191919"/>
<path fill-rule="evenodd" clip-rule="evenodd" d="M193.921 126.797C193.283 126.723 192.638 126.829 192.057 127.103C191.476 127.377 190.983 127.807 190.634 128.346C189.751 129.65 188.808 128.579 189.143 127.807C189.573 126.867 190.293 126.09 191.197 125.59C192.101 125.09 193.142 124.893 194.166 125.028C194.395 125.067 194.6 125.193 194.737 125.381C194.874 125.568 194.933 125.801 194.901 126.031C194.869 126.261 194.749 126.47 194.566 126.613C194.384 126.756 194.152 126.822 193.921 126.797Z" fill="#191919"/>
<path fill-rule="evenodd" clip-rule="evenodd" d="M207.036 126.575C206.835 126.574 206.641 126.501 206.489 126.37C206.337 126.238 206.236 126.057 206.205 125.859C206.174 125.66 206.215 125.457 206.32 125.285C206.425 125.114 206.588 124.986 206.779 124.923C208.008 124.66 209.29 124.85 210.39 125.458C211.489 126.067 212.332 127.052 212.761 128.233C213.027 129.156 211.795 129.913 211.329 128.877C210.958 128.081 210.34 127.426 209.566 127.011C208.792 126.596 207.905 126.443 207.036 126.575Z" fill="#191919"/>
<path fill-rule="evenodd" clip-rule="evenodd" d="M199.366 149.191C200.058 150.75 201.287 152.009 202.829 152.739C204.37 153.469 206.123 153.621 207.767 153.169C209.464 152.622 210.889 151.451 211.755 149.893C212.622 148.336 212.865 146.508 212.436 144.778C212.24 143.973 211.519 143.693 210.652 144.375C207.028 147.231 204.346 147.677 200.063 147.748C199.368 147.759 198.961 148.382 199.366 149.191Z" fill="#191919"/>
<path fill-rule="evenodd" clip-rule="evenodd" d="M82.2517 180.198C82.6349 180.924 81.5626 181.703 80.9637 181.164C77.4974 178.026 71.1507 173.597 69.3604 169.411C66.9454 163.776 68.264 156.719 63.4855 152.16C63.3133 152.012 63.2043 151.804 63.1813 151.579C63.1583 151.353 63.223 151.127 63.3619 150.948C63.5009 150.769 63.7034 150.65 63.9276 150.617C64.1517 150.583 64.3803 150.637 64.5658 150.767C69.8466 154.481 68.8452 161.753 71.2908 167.028C73.7702 172.368 79.534 175.06 82.2517 180.198Z" fill="#191919"/>
<path fill-rule="evenodd" clip-rule="evenodd" d="M46.9331 171.974C42.007 170.997 37.3995 168.815 33.5218 165.624C32.2773 164.528 33.7681 163.644 34.6762 164.257C38.5327 166.982 42.9463 168.816 47.598 169.626C52.1384 170.298 56.7607 170.179 61.2605 169.275C62.3698 169.127 62.3456 170.75 61.5825 171.207C58.1113 173.292 50.8293 172.832 46.9331 171.974Z" fill="#191919"/>
<path fill-rule="evenodd" clip-rule="evenodd" d="M26.462 169.464C25.7729 168.709 26.9321 167.706 27.6888 168.253C32.8558 172.218 38.7883 175.068 45.1122 176.625C50.0517 177.752 48.6816 180.064 44.2477 179.15C37.454 177.855 31.2352 174.468 26.462 169.464Z" fill="#191919"/>
<path fill-rule="evenodd" clip-rule="evenodd" d="M45.6532 187.106C39.7847 186.766 31.6574 184.062 27.2525 180.201C27.0976 180.06 26.9982 179.868 26.9724 179.66C26.9465 179.452 26.9958 179.241 27.1114 179.066C27.227 178.892 27.4013 178.764 27.6028 178.706C27.8043 178.648 28.0198 178.665 28.2104 178.752C34.9064 182.033 38.4774 183.699 45.9607 184.628C50.3045 185.169 50.1773 187.369 45.6532 187.106Z" fill="#191919"/>
<path fill-rule="evenodd" clip-rule="evenodd" d="M71.5903 194.618C72.7704 195.423 71.4293 197.405 70.2266 196.694C63.88 192.957 56.6527 195.245 49.7587 195.233C43.0366 195.347 36.4514 193.328 30.9491 189.465C30.1553 188.871 31.0296 187.683 31.8684 188.067C38.1684 191.249 45.1661 192.799 52.2204 192.575C58.7361 192.181 65.7975 190.674 71.5903 194.618Z" fill="#191919"/>
<path fill-rule="evenodd" clip-rule="evenodd" d="M315.84 289.815C251.4 290.599 67.9227 288.984 28.732 288.526C26.2076 288.498 24.2047 285.648 28.6596 285.628C79.0526 285.369 240.795 285.43 315.747 286.121C318.698 286.14 318.706 289.779 315.84 289.815Z" fill="#38A1FF"/>
<path fill-rule="evenodd" clip-rule="evenodd" d="M191.669 173.328C177.501 175.582 150.363 190.73 135.585 210.274C149.592 208.154 190.904 207.791 202.776 209.184C198.309 203.745 193.363 198.717 187.996 194.163C190.057 191.801 191.996 189.964 193.691 188.347C190.299 186.254 184.722 182.915 182.26 181.766C185.049 178.588 188.207 175.755 191.669 173.328Z" fill="#38A1FF"/>
<path fill-rule="evenodd" clip-rule="evenodd" d="M222.647 189.074C224.463 190.884 226.013 192.944 227.248 195.192C222.281 198.038 212.649 203.369 206.835 209.546C212.386 210.274 216.012 212.968 217.944 221.138C218.775 224.643 219.921 230.267 221.058 236.58C231.576 234.281 242.268 232.867 253.023 232.354C251.136 227.522 248.613 222.963 245.522 218.797C244.858 217.92 246.088 216.806 246.821 217.658C250.555 221.943 253.444 226.897 255.336 232.257C260.154 231.972 264.985 232.041 269.793 232.461C270.887 232.585 270.9 234.223 269.767 234.195C253.532 233.666 237.295 235.196 221.444 238.749C223.062 247.977 224.585 258.289 225.064 265.51C250.019 265.267 290.504 277.598 296.778 262.723C310.83 229.411 268.152 176.833 237.786 172.23C240.349 175.778 242.144 179.821 243.055 184.102C239.729 185.256 227.01 188.285 222.647 189.074Z" fill="#38A1FF"/>
<path fill-rule="evenodd" clip-rule="evenodd" d="M203.966 198.524C198.862 185.788 199.001 179.008 197.545 172.764C197.512 172.549 197.397 172.355 197.224 172.221C197.052 172.088 196.834 172.027 196.618 172.049C196.401 172.072 196.201 172.177 196.059 172.343C195.918 172.508 195.845 172.722 195.857 172.94C195.805 180.476 199.645 193.029 202.763 200.247C202.862 200.422 203.001 200.571 203.168 200.682C203.335 200.793 203.526 200.863 203.725 200.887C203.925 200.91 204.127 200.887 204.315 200.817C204.504 200.748 204.673 200.635 204.81 200.488C214.909 186.464 219.955 181.397 231.536 172.402C231.716 172.274 231.84 172.082 231.881 171.865C231.922 171.648 231.878 171.424 231.757 171.239C231.637 171.054 231.449 170.923 231.234 170.874C231.019 170.824 230.793 170.86 230.604 170.974C219.856 178.147 210.773 187.541 203.966 198.524Z" fill="#38A1FF"/>
<path fill-rule="evenodd" clip-rule="evenodd" d="M121.854 211.728C111.921 205.671 95.0818 190.771 88.1781 181.344C81.2403 188.421 75.0683 196.209 69.7645 204.581C82.3322 223.115 102.235 243.11 114.708 248.919C113.259 242.74 112.89 225.659 113.259 220.208C113.627 214.756 117.736 212.576 121.854 211.728Z" fill="#38A1FF"/>
<path fill-rule="evenodd" clip-rule="evenodd" d="M64.9329 211.446C68.0145 211.317 66.4302 209.157 65.1165 209.131C47.5675 208.786 28.7594 208.358 15.5285 208.564C16.5508 132.11 15.939 83.8697 16.3576 40.791C16.3689 39.6495 14.6574 39.825 14.6059 40.9117C12.9347 75.934 13.9619 170.248 12.6739 208.303C12.6288 209.607 12.719 210.44 15.5397 210.565C23.44 210.92 31.139 210.934 39.0844 211.071C46.3857 211.198 57.857 211.742 64.9329 211.446Z" fill="#38A1FF"/>
<path fill-rule="evenodd" clip-rule="evenodd" d="M257.196 135.562C257.97 119.865 257.729 103.959 257.8 88.228C257.842 78.9286 258.263 53.9608 258.159 41.7071C258.141 39.5851 255.953 40.7942 255.93 41.8681C255.507 62.6741 254.411 114.626 255.206 135.585C255.274 137.349 257.117 137.323 257.196 135.562Z" fill="#38A1FF"/>
<path fill-rule="evenodd" clip-rule="evenodd" d="M40.9681 87.584C40.9681 82.4803 41.0115 77.3798 40.9681 72.2761C63.9556 72.1441 86.9577 72.0137 109.942 71.5983C109.961 76.0645 109.942 80.5306 109.942 84.9967C87.9865 85.5586 65.5351 86.3862 43.5135 86.7806C42.0951 86.8064 42.3253 88.9251 43.697 88.9428C65.9327 89.2117 88.8511 87.7933 111.156 87.2153C111.451 87.1847 111.723 87.041 111.914 86.8144C112.106 86.5878 112.202 86.2958 112.183 85.9998C112.183 80.785 112.165 75.5686 112.201 70.3538C112.17 70.0564 112.024 69.7827 111.796 69.59C111.567 69.3973 111.272 69.3006 110.974 69.3202C87.225 69.3347 63.4598 69.6583 39.7107 69.9754C39.407 70.0069 39.1273 70.1547 38.9304 70.388C38.7334 70.6213 38.6346 70.9218 38.6545 71.2264C38.7865 76.7326 39.0667 82.2259 39.2566 87.7289C39.284 88.8479 40.9665 88.6901 40.9681 87.584Z" fill="#38A1FF"/>
<path fill-rule="evenodd" clip-rule="evenodd" d="M39.6285 124.384C63.6368 123.447 88.3552 123.337 112.217 121.693C112.392 121.697 112.565 121.663 112.725 121.591C112.884 121.52 113.026 121.414 113.139 121.281C113.253 121.148 113.335 120.992 113.381 120.823C113.426 120.654 113.433 120.478 113.402 120.306C112.98 116.902 112.557 113.499 112.114 110.098C111.929 108.686 109.81 109.169 109.965 110.555C110.287 113.51 110.644 116.463 110.995 119.41C87.6854 120.394 64.1697 121.059 40.96 121.803C40.96 117.187 40.9358 112.565 41.0662 107.957C64.532 107.714 87.5952 107.334 111.319 107.527C111.547 107.531 111.769 107.446 111.936 107.289C112.103 107.133 112.203 106.918 112.214 106.689C112.226 106.461 112.148 106.237 111.998 106.064C111.847 105.892 111.635 105.785 111.407 105.766C87.592 104.669 63.6771 105.152 39.7621 105.201C39.5768 105.191 39.3913 105.217 39.2163 105.279C39.0414 105.342 38.8804 105.438 38.7427 105.562C38.605 105.687 38.4934 105.837 38.4141 106.005C38.3349 106.173 38.2896 106.355 38.2809 106.54C38.479 112.035 38.4049 117.549 38.4242 123.051C38.4118 123.386 38.5307 123.713 38.7556 123.962C38.9805 124.211 39.2937 124.362 39.6285 124.384Z" fill="#38A1FF"/>
<path fill-rule="evenodd" clip-rule="evenodd" d="M110.242 156.626C98.7139 156.779 84.0484 156.55 72.223 157.109C71.2328 157.155 71.2779 159.174 72.2488 159.19C82.8957 159.372 99.0086 158.846 111.317 159.105C112.677 159.134 112.74 157.817 112.581 156.838C111.786 152.033 111.743 147.134 112.454 142.316C112.486 142.142 112.48 141.963 112.434 141.792C112.389 141.622 112.306 141.463 112.191 141.329C112.076 141.194 111.933 141.087 111.771 141.015C111.61 140.943 111.434 140.909 111.257 140.914C87.8352 141.467 64.4064 142.334 40.9858 142.709C40.6709 142.73 40.3766 142.873 40.1647 143.107C39.9527 143.341 39.8396 143.648 39.8491 143.963C39.8073 149.031 39.8169 154.106 39.7815 159.168C39.8035 159.501 39.9541 159.813 40.2016 160.037C40.4492 160.262 40.7742 160.381 41.1081 160.37C47.8701 160.123 53.1944 160.16 59.958 159.743C61.085 159.673 60.99 157.64 59.8727 157.637C53.5325 157.619 48.6429 157.688 42.3044 157.82C42.2802 153.568 42.2754 149.316 42.2464 145.064C64.8218 144.259 87.415 143.905 109.995 143.274C109.467 147.715 109.55 152.207 110.242 156.626Z" fill="#38A1FF"/>
<path fill-rule="evenodd" clip-rule="evenodd" d="M164.973 171.637C166.039 171.89 166.329 170.179 165.295 169.876C154.021 166.284 144.564 158.485 138.891 148.101C125.801 124.72 133.9 94.0803 155.169 78.5374C174.006 64.7703 214.471 65.0504 227.519 87.5534C228.308 88.9139 230.357 88.17 229.7 86.7227C219.499 64.239 178.097 61.019 157.793 73.416C133.886 88.0187 122.798 119.6 134.641 145.484C140.598 158.506 151.662 168.485 164.973 171.637Z" fill="#38A1FF"/>
<path fill-rule="evenodd" clip-rule="evenodd" d="M257.008 176.35C257.416 172.879 257.053 163.631 257.067 158.22C257.067 156.278 255.245 156.991 255.179 157.804C254.791 163.981 254.775 170.175 255.13 176.353C255.203 177.276 256.901 177.261 257.008 176.35Z" fill="#38A1FF"/>
<path fill-rule="evenodd" clip-rule="evenodd" d="M262.781 271.572C253.171 270.445 233.242 269.21 220.301 268.996C220.301 261.565 213.195 219.086 208.672 215.532C204.341 212.129 122.18 211.494 118.787 217.947C114.328 226.442 121.698 279.066 125.768 280.456C132.39 282.71 258.254 282.334 263.745 281.905C266.616 281.687 267.025 272.066 262.781 271.572ZM144.15 220.601C139.378 221.1 134.812 221.76 130.053 222.457C125.933 223.061 125.641 223.924 125.194 227.878C124.626 232.573 124.354 237.299 124.379 242.028C124.379 243.034 122.915 243.298 122.782 242.239C122.166 236.812 122.207 231.331 122.904 225.914C123.365 222.359 124.675 220.762 128.217 220.039C133.454 218.981 138.8 218.561 144.138 218.789C144.355 218.821 144.553 218.929 144.697 219.094C144.841 219.26 144.921 219.471 144.922 219.69C144.924 219.909 144.846 220.121 144.705 220.288C144.563 220.456 144.366 220.566 144.15 220.601ZM165.186 256.55C161.781 257.194 158.092 255.352 156.764 250.159C155.61 245.651 157.73 242.249 161.475 241.291C170.443 238.998 173.719 254.919 165.186 256.55Z" fill="#191919"/>
<path fill-rule="evenodd" clip-rule="evenodd" d="M258.276 149.063C242.965 133.892 252.092 112.623 242.3 102.33C240.448 100.334 237.948 99.06 235.244 98.7357C232.541 98.4113 229.81 99.0575 227.538 100.559C219.995 88.2924 204.61 85.3236 191.511 89.4049C177.235 93.8533 172.12 111.282 183.58 116.891C189.586 119.831 210.668 120.08 217.26 118.804C217.787 124.261 219.829 129.463 223.154 133.823C223.495 134.234 223.972 134.802 224.539 134.306C225.151 133.754 225.872 133.335 226.655 133.076C227.439 132.817 228.267 132.723 229.088 132.801C229.91 132.879 230.706 133.126 231.426 133.528C232.147 133.929 232.776 134.476 233.275 135.134C233.733 135.811 234.052 136.572 234.216 137.373C234.379 138.174 234.382 138.999 234.226 139.801C234.069 140.604 233.755 141.367 233.303 142.048C232.85 142.729 232.268 143.313 231.589 143.768C229.62 145.071 228.216 144.881 226.01 144.77C225.319 144.736 225.191 145.314 225.144 145.842C224.463 153.512 223.708 162.264 224.878 169.892C224.908 170.104 225.02 170.295 225.189 170.426C225.359 170.557 225.572 170.617 225.785 170.592C225.997 170.568 226.192 170.462 226.327 170.296C226.462 170.13 226.528 169.918 226.509 169.705C226.525 167.638 226.448 165.571 226.38 163.502C237.159 164.708 250.807 158.403 258.308 151.195C259.497 150.067 258.646 149.431 258.276 149.063ZM200.284 96.5839C197.656 96.5367 195.056 97.1272 192.706 98.305C190.096 99.5576 185.665 102.671 185.963 105.936C186.052 106.915 184.644 107.514 184.279 106.505C182.516 101.639 187.423 97.8381 190.695 96.0526C193.609 94.4624 196.874 93.624 200.194 93.6135C204.441 93.6183 202.688 96.6853 200.284 96.5839Z" fill="#191919"/>
</svg>
